<?xml version="1.0" encoding="UTF-8" standalone="no"?> <!-- Created with Vectornator for iOS (http://vectornator.io/) --><!DOCTYPE svg PUBLIC "-//W3C//DTD SVG 1.1//EN" "http://www.w3.org/Graphics/SVG/1.1/DTD/svg11.dtd">
<svg style="fill-rule:evenodd;clip-rule:evenodd;stroke-linecap:round;stroke-linejoin:round;" xmlns:vectornator="http://vectornator.io" xmlns:xlink="http://www.w3.org/1999/xlink" xmlns="http://www.w3.org/2000/svg" xml:space="preserve" version="1.1" viewBox="0 0 841.995 595.35">
<metadata>
<vectornator:setting key="DisplayWhiteBackground" value="0"/>
<vectornator:setting key="RulersVisible" value="1"/>
<vectornator:setting key="SnapToEdges" value="1"/>
<vectornator:setting key="Units" value="Millimeters"/>
<vectornator:setting key="DynamicGuides" value="0"/>
<vectornator:setting key="SnapToPoints" value="0"/>
<vectornator:setting key="CMYKEnabledKey" value="0"/>
<vectornator:setting key="SnapToGrid" value="0"/>
<vectornator:setting key="SnapToGuides" value="0"/>
<vectornator:setting key="GridSpacing" value="36"/>
</metadata>
<defs/>
<g id="Base" vectornator:layerName="Base">
<path stroke="#ffffff" stroke-width="1" d="M115.078+94.081L754.309+94.081L754.309+483.732L115.078+483.732L115.078+94.081Z" fill="none" stroke-linecap="round" opacity="1" stroke-linejoin="round"/>
</g>
<g id="Curls" vectornator:layerName="Curls">
<path stroke="#ffffff" stroke-width="1" d="M696.261+93.5751C696.261+75.2693+671.977+40.4342+649.352+54.5751C586.718+93.7212+727.503+92.3758+662.17+61.3933C638.255+50.0522+649.207+90.175+661.897+77.4842" fill="none" stroke-linecap="round" opacity="1" stroke-linejoin="round"/>
<path stroke="#ffffff" stroke-width="1" d="M365.26+94.1156C365.26+75.8098+389.176+40.9748+411.458+55.1156C473.144+94.2618+334.491+92.9163+398.834+61.9338C422.387+50.5927+411.602+90.7156+399.103+78.0247" fill="none" stroke-linecap="round" opacity="1" stroke-linejoin="round"/>
<path stroke="#ffffff" stroke-width="1" d="M754.792+271.436C773.09+270.882+808.632+293.734+795.171+316.435C757.908+379.275+755.061+240.645+787.974+304.022C800.022+327.222+759.592+317.654+771.899+304.777" fill="none" stroke-linecap="round" opacity="1" stroke-linejoin="round"/>
<path stroke="#ffffff" stroke-width="1" d="M287.618+93.7896C287.618+75.4838+263.334+40.6487+240.709+54.7896C178.075+93.9357+318.859+92.5903+253.527+61.6077C229.612+50.2667+240.563+90.3895+253.254+77.6987" fill="none" stroke-linecap="round" opacity="1" stroke-linejoin="round"/>
<path stroke="#ffffff" stroke-width="1" d="M244.082+483.464C244.082+504.027+270.795+543.157+295.685+527.272C364.585+483.3+209.715+484.811+281.584+519.614C307.892+532.353+295.844+487.283+281.884+501.539" fill="none" stroke-linecap="round" opacity="1" stroke-linejoin="round"/>
<path stroke="#ffffff" stroke-width="1" d="M533.843+483.369C533.843+503.931+560.557+543.061+585.446+527.177C654.346+483.204+499.476+484.716+571.345+519.518C597.653+532.257+585.606+487.188+571.645+501.443" fill="none" stroke-linecap="round" opacity="1" stroke-linejoin="round"/>
<path stroke="#ffffff" stroke-width="1" d="M114.715+228.373C103.331+229.35+80.0855+218.844+87.4051+206.57C107.668+172.593+116.005+244.343+92.4804+212.733C83.8693+201.162+109.534+204.597+102.469+211.736" fill="none" stroke-linecap="round" opacity="1" stroke-linejoin="round"/>
<path stroke="#ffffff" stroke-width="1" d="M633.076+73.8593C633.076+60.7396+595.268+63.8425+604.376+85.2085C609.511+97.2566+631.734+96.6812+628.771+80.945C627.376+73.5333+610.728+64.9696+608.811+76.2613C607.689+82.8743+614.872+91.0575+622.183+85.4487C626.725+81.9641+619.68+74.8243+614.878+75.961C614.866+75.9637+613.905+82.9572+616.704+78.6632" fill="none" stroke-linecap="round" opacity="1" stroke-linejoin="round"/>
<path stroke="#ffffff" stroke-width="1" d="M775.661+473.547C788.78+473.388+785.22+435.62+763.966+444.985C751.981+450.266+752.825+472.481+768.524+469.328C775.918+467.843+784.28+451.092+772.966+449.312C766.34+448.27+758.244+455.551+763.941+462.794C767.48+467.294+774.534+460.163+773.34+455.375C773.337+455.363+766.332+454.487+770.66+457.234" fill="none" stroke-linecap="round" opacity="1" stroke-linejoin="round"/>
<path stroke="#ffffff" stroke-width="1" d="M436.753+504.305C437.008+517.422+474.749+513.584+465.228+492.4C459.859+480.454+437.651+481.461+440.919+497.137C442.459+504.52+459.27+512.758+460.967+501.431C461.96+494.798+454.62+486.756+447.419+492.506C442.945+496.078+450.128+503.079+454.907+501.85C454.919+501.847+455.744+494.836+453.029+499.183" fill="none" stroke-linecap="round" opacity="1" stroke-linejoin="round"/>
<path stroke="#ffffff" stroke-width="1" d="M726.514+504.209C726.769+517.326+764.51+513.489+754.989+492.304C749.62+480.358+727.412+481.365+730.681+497.041C732.22+504.424+749.031+512.663+750.728+501.336C751.722+494.702+744.381+486.66+737.18+492.41C732.706+495.982+739.89+502.984+744.669+501.754C744.68+501.751+745.505+494.74+742.79+499.088" fill="none" stroke-linecap="round" opacity="1" stroke-linejoin="round"/>
<path stroke="#ffffff" stroke-width="1" d="M427.488+74.3999C427.488+61.2802+464.723+64.3831+455.754+85.749C450.696+97.7971+428.809+97.2218+431.727+81.4856C433.102+74.0739+449.498+65.5102+451.385+76.8018C452.491+83.4148+445.416+91.5981+438.216+85.9892C433.742+82.5047+440.682+75.3648+445.411+76.5016C445.422+76.5043+446.368+83.4977+443.612+79.2037" fill="none" stroke-linecap="round" opacity="1" stroke-linejoin="round"/>
<path stroke="#ffffff" stroke-width="1" d="M224.433+74.0738C224.433+60.9541+186.625+64.057+195.732+85.423C200.868+97.4711+223.091+96.8957+220.128+81.1595C218.732+73.7478+202.084+65.1841+200.168+76.4757C199.046+83.0887+206.229+91.272+213.54+85.6632C218.082+82.1786+211.036+75.0388+206.234+76.1755C206.223+76.1782+205.262+83.1717+208.061+78.8777" fill="none" stroke-linecap="round" opacity="1" stroke-linejoin="round"/>
<path stroke="#ffffff" stroke-width="1" d="M313.588+505.611C313.588+520.348+355.179+516.862+345.161+492.862C339.511+479.329+315.065+479.975+318.324+497.651C319.859+505.977+338.173+515.596+340.281+502.912C341.516+495.484+333.614+486.292+325.572+492.592C320.575+496.506+328.326+504.527+333.608+503.25C333.621+503.247+334.678+495.391+331.599+500.214" fill="none" stroke-linecap="round" opacity="1" stroke-linejoin="round"/>
<path stroke="#ffffff" stroke-width="1" d="M115.498+483.557C100.39+483.183+102.879+524.848+127.744+515.443C141.766+510.139+141.741+485.685+123.534+488.494C114.959+489.817+104.62+507.88+117.568+510.31C125.151+511.733+134.781+504.067+128.532+495.867C124.649+490.773+116.225+498.317+117.396+503.63C117.399+503.643+125.425+504.899+120.561+501.699" fill="none" stroke-linecap="round" opacity="1" stroke-linejoin="round"/>
<path stroke="#ffffff" stroke-width="1" d="M603.35+505.515C603.35+520.252+644.94+516.767+634.922+492.767C629.272+479.233+604.826+479.879+608.085+497.556C609.621+505.881+627.934+515.501+630.042+502.817C631.277+495.389+623.375+486.196+615.333+492.497C610.336+496.411+618.087+504.431+623.369+503.154C623.382+503.151+624.439+495.296+621.36+500.119" fill="none" stroke-linecap="round" opacity="1" stroke-linejoin="round"/>
<path stroke="#ffffff" stroke-width="1" d="M114.814+191.255C113.214+204.271+77.4261+197.038+88.744+176.841C95.1262+165.452+116.314+168.465+111.56+183.752C109.321+190.952+92.3517+197.619+91.8957+186.205C91.6286+179.521+99.4979+172.191+105.808+178.56C109.727+182.516+102.117+188.825+97.6619+187.17C97.6512+187.166+97.5852+180.122+99.7386+184.69" fill="none" stroke-linecap="round" opacity="1" stroke-linejoin="round"/>
<path stroke="#ffffff" stroke-width="1" d="M115.183+382.787C113.48+396.319+75.3911+388.799+87.4368+367.803C94.2293+355.963+116.779+359.096+111.72+374.987C109.337+382.472+91.2764+389.403+90.7911+377.538C90.5068+370.589+98.8821+362.969+105.597+369.59C109.769+373.703+101.669+380.262+96.9281+378.54C96.9167+378.536+96.8464+371.214+99.1383+375.962" fill="none" stroke-linecap="round" opacity="1" stroke-linejoin="round"/>
<path stroke="#ffffff" stroke-width="1" d="M755.048+98.2512C757.125+85.0471+803.571+92.3851+788.882+112.873C780.599+124.426+753.102+121.369+759.271+105.862C762.177+98.5586+784.2+91.7959+784.792+103.374C785.139+110.154+774.926+117.59+766.737+111.13C761.65+107.116+771.527+100.716+777.308+102.395C777.322+102.399+777.408+109.545+774.613+104.911" fill="none" stroke-linecap="round" opacity="1" stroke-linejoin="round"/>
<path stroke="#ffffff" stroke-width="1" d="M748.661+94.0134C739.256+92.7541+752.007+68.3762+764.787+76.3711C771.994+80.8794+765.395+95.3281+754.939+91.8838C750.015+90.2616+748.511+78.5741+757.139+78.4072C762.192+78.3094+766.058+83.783+760.002+88.0163C756.239+90.6464+753.083+85.3625+755.234+82.3376C755.24+82.3303+760.52+82.3746+756.663+83.789" fill="none" stroke-linecap="round" opacity="1" stroke-linejoin="round"/>
<path stroke="#ffffff" stroke-width="1" d="M633.035+73.8593C633.035+60.7396+595.279+63.8425+604.374+85.2085C609.502+97.2566+631.695+96.6812+628.736+80.945C627.342+73.5333+610.717+64.9696+608.803+76.2613C607.682+82.8743+614.856+91.0575+622.157+85.4487C626.693+81.9641+619.657+74.8243+614.861+75.961C614.85+75.9637+613.89+82.9572+616.685+78.6632" fill="none" stroke-linecap="round" opacity="1" stroke-linejoin="round"/>
<path stroke="#ffffff" stroke-width="1" d="M775.661+473.505C788.779+473.347+785.22+435.631+763.966+444.983C751.981+450.257+752.824+472.441+768.524+469.292C775.918+467.809+784.28+451.082+772.966+449.304C766.34+448.264+758.244+455.535+763.941+462.768C767.48+467.262+774.534+460.14+773.339+455.358C773.337+455.347+766.332+454.472+770.66+457.215" fill="none" stroke-linecap="round" opacity="1" stroke-linejoin="round"/>
<path stroke="#ffffff" stroke-width="1" d="M436.794+504.304C437.049+517.421+474.738+513.585+465.229+492.4C459.868+480.453+437.691+481.46+440.955+497.136C442.492+504.519+459.281+512.758+460.975+501.431C461.967+494.798+454.636+486.755+447.445+492.505C442.978+496.077+450.151+503.079+454.924+501.849C454.935+501.846+455.758+494.835+453.048+499.183" fill="none" stroke-linecap="round" opacity="1" stroke-linejoin="round"/>
<path stroke="#ffffff" stroke-width="1" d="M726.555+504.208C726.81+517.326+764.499+513.489+754.991+492.304C749.629+480.358+727.452+481.365+730.716+497.04C732.253+504.424+749.042+512.663+750.736+501.336C751.728+494.702+744.397+486.66+737.206+492.41C732.739+495.982+739.912+502.984+744.685+501.754C744.696+501.751+745.52+494.74+742.809+499.088" fill="none" stroke-linecap="round" opacity="1" stroke-linejoin="round"/>
<path stroke="#ffffff" stroke-width="1" d="M427.528+74.3999C427.528+61.2802+464.713+64.3831+455.756+85.749C450.705+97.7971+428.848+97.2218+431.762+81.4856C433.135+74.0739+449.508+65.5102+451.393+76.8018C452.497+83.4148+445.432+91.5981+438.242+85.9892C433.774+82.5047+440.704+75.3648+445.427+76.5016C445.438+76.5043+446.383+83.4977+443.631+79.2037" fill="none" stroke-linecap="round" opacity="1" stroke-linejoin="round"/>
<path stroke="#ffffff" stroke-width="1" d="M224.392+74.0738C224.392+60.9541+186.636+64.057+195.73+85.423C200.859+97.4711+223.051+96.8957+220.093+81.1595C218.699+73.7478+202.074+65.1841+200.16+76.4757C199.039+83.0887+206.212+91.272+213.513+85.6632C218.049+82.1786+211.013+75.0388+206.218+76.1755C206.206+76.1782+205.247+83.1717+208.042+78.8777" fill="none" stroke-linecap="round" opacity="1" stroke-linejoin="round"/>
<path stroke="#ffffff" stroke-width="1" d="M313.634+505.611C313.634+520.348+355.168+516.862+345.163+492.862C339.521+479.329+315.108+479.975+318.363+497.651C319.896+505.977+338.185+515.596+340.29+502.912C341.523+495.484+333.632+486.292+325.6+492.592C320.611+496.506+328.351+504.527+333.626+503.25C333.639+503.247+334.694+495.391+331.62+500.214" fill="none" stroke-linecap="round" opacity="1" stroke-linejoin="round"/>
<path stroke="#ffffff" stroke-width="1" d="M603.395+505.515C603.395+520.252+644.929+516.767+634.924+492.767C629.282+479.233+604.869+479.879+608.124+497.556C609.657+505.881+627.946+515.501+630.051+502.817C631.284+495.389+623.393+486.196+615.362+492.497C610.372+496.411+618.112+504.431+623.387+503.154C623.4+503.151+624.455+495.296+621.381+500.119" fill="none" stroke-linecap="round" opacity="1" stroke-linejoin="round"/>
<path stroke="#ffffff" stroke-width="1" d="M729.786+84.53C744.155+85.3078+726.298+44.6604+701.185+64.0327C686.402+75.4358+696.992+99.2881+714.673+91.8672C727.41+86.5214+730.106+74.4557+719.345+68.405C702.278+58.8091+708.124+87.5564+714.719+80.508C721.863+72.8721+707.487+73.3612+712.974+77.2939" fill="none" stroke-linecap="round" opacity="1" stroke-linejoin="round"/>
<path stroke="#ffffff" stroke-width="1" d="M526.667+84.9345C541.036+85.7124+523.179+45.0649+498.066+64.4373C483.283+75.8404+493.873+99.6927+511.554+92.2718C524.291+86.926+526.987+74.8602+516.226+68.8096C499.159+59.2136+505.005+87.9609+511.6+80.9126C518.745+73.2767+504.368+73.7657+509.856+77.6985" fill="none" stroke-linecap="round" opacity="1" stroke-linejoin="round"/>
<path stroke="#ffffff" stroke-width="1" d="M763.3+367.279C762.696+381.657+803.125+363.309+783.45+338.432C771.869+323.789+748.147+334.666+755.781+352.256C761.28+364.927+773.378+367.477+779.298+356.644C788.687+339.462+760.012+345.655+767.14+352.164C774.862+359.216+774.199+344.846+770.333+350.381" fill="none" stroke-linecap="round" opacity="1" stroke-linejoin="round"/>
<path stroke="#ffffff" stroke-width="1" d="M321.143+84.7444C335.512+85.5223+317.654+44.8748+292.541+64.2472C277.759+75.6503+288.349+99.5026+306.03+92.0817C318.767+86.7359+321.462+74.6701+310.701+68.6195C293.635+59.0235+299.48+87.7708+306.075+80.7225C313.22+73.0866+298.843+73.5756+304.331+77.5084" fill="none" stroke-linecap="round" opacity="1" stroke-linejoin="round"/>
<path stroke="#ffffff" stroke-width="1" d="M763.612+226.461C763.269+240.847+803.358+221.769+783.235+197.253C771.39+182.822+747.869+194.128+755.821+211.577C761.55+224.146+773.691+226.476+779.414+215.537C788.489+198.188+759.932+204.9+767.176+211.279C775.025+218.189+774.101+203.834+770.336+209.438" fill="none" stroke-linecap="round" opacity="1" stroke-linejoin="round"/>
<path stroke="#ffffff" stroke-width="1" d="M114.207+256.628C122.482+268.56+75.8033+274.626+80.355+242.855C83.0342+224.154+110.484+220.69+112.983+239.784C114.783+253.538+105.135+262.207+93.9223+256.15C76.1394+246.545+105.582+236.428+102.588+245.804C99.3449+255.962+92.2274+243.356+98.7226+245.998" fill="none" stroke-linecap="round" opacity="1" stroke-linejoin="round"/>
<path stroke="#ffffff" stroke-width="1" d="M597.004+93.4863C596.169+86.5695+602.096+80.6867+603.606+73.9176C606.193+62.3204+596.311+55.9204+587.722+56.0786C561.841+56.5554+569.47+96.5572+588.009+87.4319C604.108+79.5076+580.334+58.3084+578.249+70.3498C577.548+74.3989+578.375+76.5123+582.459+76.5123" fill="none" stroke-linecap="round" opacity="1" stroke-linejoin="round"/>
<path stroke="#ffffff" stroke-width="1" d="M755.6+437.714C762.506+436.796+768.46+442.651+775.247+444.079C786.874+446.526+793.154+436.567+792.892+427.981C792.103+402.107+752.196+410.22+761.545+428.647C769.663+444.649+790.573+420.62+778.508+418.681C774.45+418.029+772.347+418.882+772.396+422.965" fill="none" stroke-linecap="round" opacity="1" stroke-linejoin="round"/>
<path stroke="#ffffff" stroke-width="1" d="M472.437+483.98C473.406+490.879+467.594+496.876+466.216+503.673C463.855+515.319+473.86+521.525+482.444+521.2C508.311+520.22+499.906+480.374+481.548+489.858C465.606+498.094+489.787+518.827+491.638+506.748C492.26+502.686+491.392+500.589+487.309+500.668" fill="none" stroke-linecap="round" opacity="1" stroke-linejoin="round"/>
<path stroke="#ffffff" stroke-width="1" d="M463.528+94.0269C464.411+87.1101+458.14+81.2273+456.542+74.4581C453.805+62.8609+464.261+56.461+473.349+56.6192C500.733+57.096+492.66+97.0977+473.045+87.9725C456.011+80.0482+481.166+58.849+483.372+70.8903C484.114+74.9394+483.239+77.0529+478.917+77.0529" fill="none" stroke-linecap="round" opacity="1" stroke-linejoin="round"/>
<path stroke="#ffffff" stroke-width="1" d="M188.36+93.7008C187.526+86.784+193.453+80.9012+194.963+74.132C197.55+62.5348+187.668+56.1349+179.079+56.2931C153.198+56.7699+160.827+96.7716+179.366+87.6464C195.465+79.7221+171.691+58.5229+169.606+70.5643C168.905+74.6133+169.732+76.7268+173.816+76.7268" fill="none" stroke-linecap="round" opacity="1" stroke-linejoin="round"/>
<path stroke="#ffffff" stroke-width="1" d="M353.27+483.564C354.188+491.333+347.668+497.941+346.007+505.545C343.161+518.572+354.032+525.761+363.48+525.583C391.951+525.048+383.558+480.114+363.165+490.365C345.455+499.266+371.607+523.079+373.901+509.553C374.672+505.004+373.763+502.63+369.27+502.63" fill="none" stroke-linecap="round" opacity="1" stroke-linejoin="round"/>
<path stroke="#ffffff" stroke-width="1" d="M144.599+484.899C145.517+492.669+138.997+499.277+137.336+506.881C134.49+519.908+145.36+527.097+154.809+526.919C183.279+526.384+174.887+481.45+154.493+491.7C136.783+500.601+162.936+524.414+165.23+510.888C166.001+506.34+165.091+503.966+160.598+503.966" fill="none" stroke-linecap="round" opacity="1" stroke-linejoin="round"/>
<path stroke="#ffffff" stroke-width="1" d="M643.031+483.468C643.949+491.238+637.429+497.846+635.768+505.45C632.923+518.477+643.793+525.666+653.241+525.488C681.712+524.952+673.319+480.019+652.926+490.269C635.216+499.17+661.369+522.983+663.662+509.457C664.434+504.909+663.524+502.535+659.031+502.535" fill="none" stroke-linecap="round" opacity="1" stroke-linejoin="round"/>
<path stroke="#ffffff" stroke-width="1" d="M570.547+73.9173C565.951+75.4435+547.997+73.5738+554.093+83.4618C564.645+100.58+576.235+83.8687+561.494+83.5301C560.492+83.507+559.19+84.9013+561.423+86.8087C565.582+90.3616+565.55+86.1342+564.042+85.9715" fill="none" stroke-linecap="round" opacity="1" stroke-linejoin="round"/>
<path stroke="#ffffff" stroke-width="1" d="M774.847+411.023C773.266+406.445+774.918+388.47+765.105+394.685C748.115+405.443+764.965+416.83+765.126+402.087C765.137+401.084+763.727+399.799+761.847+402.055C758.344+406.256+762.571+406.174+762.715+404.663" fill="none" stroke-linecap="round" opacity="1" stroke-linejoin="round"/>
<path stroke="#ffffff" stroke-width="1" d="M369.334+76.8623C364.5+77.1668+347.616+70.7837+350.99+81.8986C356.832+101.141+372.297+87.9345+358.13+83.8508C357.166+83.5729+355.552+84.5894+357.225+87.0029C360.341+91.4983+361.388+87.4023+359.971+86.8606" fill="none" stroke-linecap="round" opacity="1" stroke-linejoin="round"/>
<path stroke="#ffffff" stroke-width="1" d="M772.161+274.986C771.71+270.164+777.58+253.095+766.572+256.804C747.515+263.224+761.183+278.284+764.837+263.999C765.086+263.027+764.021+261.445+761.659+263.19C757.26+266.441+761.385+267.363+761.884+265.93" fill="none" stroke-linecap="round" opacity="1" stroke-linejoin="round"/>
<path stroke="#ffffff" stroke-width="1" d="M161.904+74.1318C157.308+75.658+139.354+73.7883+145.449+83.6763C156.002+100.795+167.591+84.0832+152.851+83.7445C151.848+83.7215+150.546+85.1157+152.779+87.0232C156.938+90.576+156.907+86.3486+155.398+86.1859" fill="none" stroke-linecap="round" opacity="1" stroke-linejoin="round"/>
<path stroke="#ffffff" stroke-width="1" d="M382.374+505.545C387.43+503.831+407.18+505.931+400.474+494.824C388.866+475.595+376.117+494.367+392.332+494.747C393.435+494.773+394.867+493.207+392.411+491.065C387.836+487.074+387.871+491.822+389.53+492.005" fill="none" stroke-linecap="round" opacity="1" stroke-linejoin="round"/>
<path stroke="#ffffff" stroke-width="1" d="M114.085+101.452C109.263+101.903+92.1928+96.0349+95.9024+107.042C102.325+126.099+117.383+112.43+103.098+108.777C102.126+108.529+100.544+109.594+102.289+111.955C105.541+116.354+106.462+112.228+105.03+111.73" fill="none" stroke-linecap="round" opacity="1" stroke-linejoin="round"/>
<path stroke="#ffffff" stroke-width="1" d="M114.407+289.43C109.275+289.899+91.1072+283.798+95.0555+295.242C101.891+315.052+117.917+300.842+102.714+297.045C101.68+296.787+99.9954+297.894+101.853+300.349C105.313+304.922+106.295+300.633+104.77+300.115" fill="none" stroke-linecap="round" opacity="1" stroke-linejoin="round"/>
<path stroke="#ffffff" stroke-width="1" d="M113.524+410.135C108.392+410.603+90.2241+404.503+94.1723+415.946C101.008+435.757+117.034+421.546+101.831+417.749C100.797+417.491+99.1123+418.598+100.97+421.053C104.43+425.626+105.411+421.337+103.886+420.819" fill="none" stroke-linecap="round" opacity="1" stroke-linejoin="round"/>
<path stroke="#ffffff" stroke-width="1" d="M175.442+483.602C175.84+488.74+169.486+506.821+180.983+503.033C200.887+496.475+186.902+480.252+182.893+495.4C182.621+496.431+183.704+498.13+186.185+496.307C190.806+492.911+186.531+491.87+185.991+493.388" fill="none" stroke-linecap="round" opacity="1" stroke-linejoin="round"/>
<path stroke="#ffffff" stroke-width="1" d="M755.994+189.348C762.252+188.891+784.406+194.844+779.592+183.678C771.257+164.346+751.714+178.213+770.253+181.918C771.514+182.17+773.568+181.089+771.303+178.694C767.083+174.231+765.887+178.417+767.746+178.922" fill="none" stroke-linecap="round" opacity="1" stroke-linejoin="round"/>
<path stroke="#ffffff" stroke-width="1" d="M746.256+93.6171C720.572+84.7054+763.687+63.0033+757.811+52.7246C749.094+37.4767+719.871+55.3182+732.426+68.8945C754.483+92.7464+749.611+40.3329+737.853+56.6C725.608+73.5416+760.606+46.3731+739.779+58.7382" fill="none" stroke-linecap="round" opacity="1" stroke-linejoin="round"/>
<path stroke="#ffffff" stroke-width="1" d="M135.394+93.7424C108.21+93.3812+142.286+59.1949+133.47+51.2924C120.391+39.5694+98.2815+65.713+114.476+74.6398C142.927+90.323+121.781+42.1173+115.751+61.2613C109.47+81.1992+134.12+44.3837+118.252+62.6835" fill="none" stroke-linecap="round" opacity="1" stroke-linejoin="round"/>
<path stroke="#ffffff" stroke-width="1" d="M411.536+483.517C441.44+483.923+403.954+522.324+413.653+531.201C428.04+544.369+452.361+515.002+434.547+504.975C403.25+487.358+426.511+541.507+433.145+520.003C440.054+497.607+412.937+538.961+430.393+518.405" fill="none" stroke-linecap="round" opacity="1" stroke-linejoin="round"/>
<path stroke="#ffffff" stroke-width="1" d="M701.297+483.422C731.201+483.827+693.715+522.228+703.414+531.105C717.801+544.274+742.123+514.907+724.308+504.879C693.011+487.262+716.272+541.412+722.906+519.907C729.815+497.511+702.699+538.866+720.154+518.31" fill="none" stroke-linecap="round" opacity="1" stroke-linejoin="round"/>
<path stroke="#ffffff" stroke-width="1" d="M114.4+125.645C113.889+152.827+79.8905+118.563+71.9395+127.336C60.1447+140.349+86.1661+162.602+95.182+146.458C111.022+118.094+62.7002+138.973+81.8108+145.109C101.714+151.499+65.0346+126.647+83.2466+142.615" fill="none" stroke-linecap="round" opacity="1" stroke-linejoin="round"/>
<path stroke="#ffffff" stroke-width="1" d="M114.742+314.58C114.198+342.838+78.014+307.218+69.5517+316.338C56.9985+329.867+84.6931+353.001+94.2887+336.217C111.147+306.73+59.7183+328.436+80.0576+334.815C101.24+341.458+62.2027+315.622+81.5859+332.223" fill="none" stroke-linecap="round" opacity="1" stroke-linejoin="round"/>
<path stroke="#ffffff" stroke-width="1" d="M113.859+435.285C113.315+463.542+77.1308+427.922+68.6685+437.042C56.1153+450.571+83.8099+473.705+93.4055+456.921C110.264+427.435+58.8351+449.14+79.1745+455.519C100.357+462.163+61.3195+436.327+80.7027+452.927" fill="none" stroke-linecap="round" opacity="1" stroke-linejoin="round"/>
<path stroke="#ffffff" stroke-width="1" d="M200.595+483.618C228.842+484.557+192.72+520.24+201.721+528.829C215.074+541.57+238.592+514.201+221.944+504.372C192.695+487.103+213.681+538.83+220.343+518.582C227.282+497.494+200.903+536.167+217.772+517.017" fill="none" stroke-linecap="round" opacity="1" stroke-linejoin="round"/>
<path stroke="#ffffff" stroke-width="1" d="M754.252+153.637C754.915+184.817+799.038+145.513+809.357+155.576C824.664+170.504+790.893+196.031+779.193+177.511C758.636+144.975+821.348+168.926+796.546+175.964C770.716+183.295+818.318+154.786+794.682+173.104" fill="none" stroke-linecap="round" opacity="1" stroke-linejoin="round"/>
<path stroke="#ffffff" stroke-width="1" d="M543.138+93.6221C517.453+84.7866+560.568+63.27+554.692+53.0791C545.975+37.9615+516.752+55.6506+529.307+69.1108C551.364+92.7589+546.492+40.7934+534.734+56.9215C522.489+73.7183+557.487+46.782+536.66+59.0413" fill="none" stroke-linecap="round" opacity="1" stroke-linejoin="round"/>
<path stroke="#ffffff" stroke-width="1" d="M754.813+383.853C763.337+358.064+785.373+400.916+795.492+394.917C810.503+386.018+792.462+357.011+779.155+369.727C755.775+392.069+807.678+386.569+791.409+375.007C774.465+362.966+801.823+397.636+789.312+376.958" fill="none" stroke-linecap="round" opacity="1" stroke-linejoin="round"/>
<path stroke="#ffffff" stroke-width="1" d="M526.291+482.797C552.142+491.131+509.453+513.482+515.526+523.557C524.535+538.502+553.409+520.248+540.595+507.035C518.082+483.82+523.964+535.681+535.406+519.327C547.322+502.296+512.854+529.907+533.439+517.245" fill="none" stroke-linecap="round" opacity="1" stroke-linejoin="round"/>
<path stroke="#ffffff" stroke-width="1" d="M338.452+94.0608C310.367+85.0402+357.512+63.073+351.087+52.6687C341.556+37.2345+309.601+55.294+323.329+69.0362C347.448+93.1795+342.12+40.1257+329.264+56.5915C315.874+73.7401+354.143+46.2397+331.369+58.7558" fill="none" stroke-linecap="round" opacity="1" stroke-linejoin="round"/>
<path stroke="#ffffff" stroke-width="1" d="M754.037+244.639C762.204+216.294+785.586+262.753+795.792+256.017C810.931+246.023+791.914+214.629+778.593+228.766C755.19+253.604+808.058+246.675+791.211+234.322C773.666+221.457+802.31+258.877+789.111+236.492" fill="none" stroke-linecap="round" opacity="1" stroke-linejoin="round"/>
<path stroke="#ffffff" stroke-width="1" d="M542.448+93.6764C563.988+93.6764+538.807+66.1453+557.249+60.948C576.981+55.3868+568.408+75.196+560.102+71.9889C549.576+67.9247+565.206+61.6628+562.598+66.4684" fill="none" stroke-linecap="round" opacity="1" stroke-linejoin="round"/>
<path stroke="#ffffff" stroke-width="1" d="M754.75+383.165C755.01+404.703+782.235+379.191+787.655+397.569C793.454+417.232+773.543+408.9+776.649+400.555C780.586+389.98+787.036+405.534+782.2+402.985" fill="none" stroke-linecap="round" opacity="1" stroke-linejoin="round"/>
<path stroke="#ffffff" stroke-width="1" d="M526.979+482.729C505.443+483.148+531.154+510.184+512.817+515.739C493.197+521.683+501.383+501.711+509.75+504.756C520.353+508.615+504.847+515.179+507.361+510.324" fill="none" stroke-linecap="round" opacity="1" stroke-linejoin="round"/>
<path stroke="#ffffff" stroke-width="1" d="M339.329+94.081C360.575+94.081+335.738+66.1411+353.927+60.8666C373.39+55.2228+364.934+75.3262+356.742+72.0715C346.359+67.9469+361.776+61.5921+359.204+66.469" fill="none" stroke-linecap="round" opacity="1" stroke-linejoin="round"/>
<path stroke="#ffffff" stroke-width="1" d="M754.043+245.516C754.685+266.752+781.862+241.082+787.684+259.104C793.913+278.387+773.563+270.543+776.569+262.255C780.378+251.753+787.196+266.971+782.243+264.547" fill="none" stroke-linecap="round" opacity="1" stroke-linejoin="round"/>
<path stroke="#ffffff" stroke-width="1" d="M133.805+93.8909C155.05+93.8909+130.214+65.951+148.403+60.6765C167.865+55.0327+159.41+75.1361+151.217+71.8814C140.835+67.7568+156.252+61.402+153.679+66.2789" fill="none" stroke-linecap="round" opacity="1" stroke-linejoin="round"/>
<path stroke="#ffffff" stroke-width="1" d="M413.284+483.35C389.913+483.35+417.234+514.735+397.225+520.66C375.816+526.999+385.117+504.417+394.13+508.073C405.551+512.706+388.591+519.845+391.421+514.366" fill="none" stroke-linecap="round" opacity="1" stroke-linejoin="round"/>
<path stroke="#ffffff" stroke-width="1" d="M703.045+483.255C679.674+483.255+706.995+514.639+686.986+520.564C665.577+526.904+674.878+504.322+683.891+507.978C695.312+512.611+678.353+519.749+681.182+514.271" fill="none" stroke-linecap="round" opacity="1" stroke-linejoin="round"/>
<path stroke="#ffffff" stroke-width="1" d="M114.539+127.235C114.656+105.99+86.58+130.672+81.4058+112.454C75.8693+92.9608+95.9258+101.527+92.626+109.702C88.4443+120.061+82.1745+104.609+87.0372+107.209" fill="none" stroke-linecap="round" opacity="1" stroke-linejoin="round"/>
<path stroke="#ffffff" stroke-width="1" d="M114.891+316.233C115.015+294.147+85.1336+319.806+79.6266+300.867C73.7342+280.603+95.0803+289.508+91.5683+298.006C87.1177+308.776+80.4448+292.712+85.6202+295.414" fill="none" stroke-linecap="round" opacity="1" stroke-linejoin="round"/>
<path stroke="#ffffff" stroke-width="1" d="M114.008+436.938C114.132+414.852+84.2504+440.511+78.7435+421.572C72.851+401.307+94.1971+410.212+90.6852+418.71C86.2346+429.48+79.5616+413.417+84.737+416.119" fill="none" stroke-linecap="round" opacity="1" stroke-linejoin="round"/>
<path stroke="#ffffff" stroke-width="1" d="M114.008+436.938C114.132+414.852+84.2504+440.511+78.7435+421.572C72.851+401.307+94.1971+410.212+90.6852+418.71C86.2346+429.48+79.5616+413.417+84.737+416.119" fill="none" stroke-linecap="round" opacity="1" stroke-linejoin="round"/>
<path stroke="#ffffff" stroke-width="1" d="M114.61+483.575C99.1805+470.101+100.533+508.437+84.1741+501.165C66.6693+493.384+84.8148+482.496+88.8213+490.323C93.8985+500.242+78.9072+495.601+83.6875+493.29" fill="none" stroke-linecap="round" opacity="1" stroke-linejoin="round"/>
<path stroke="#ffffff" stroke-width="1" d="M202.25+483.493C180.168+483.06+205.407+513.297+186.393+518.539C166.048+524.148+175.25+502.928+183.699+506.558C194.405+511.159+178.25+517.607+181.024+512.47" fill="none" stroke-linecap="round" opacity="1" stroke-linejoin="round"/>
<path stroke="#ffffff" stroke-width="1" d="M754.07+155.461C753.918+131.091+790.356+159.403+797.072+138.506C804.257+116.145+778.227+125.971+782.51+135.348C787.937+147.232+796.074+129.507+789.763+132.488" fill="none" stroke-linecap="round" opacity="1" stroke-linejoin="round"/>
<path stroke="#ffffff" stroke-width="1" d="M117.091+94.2423C109.764+94.705+113.028+83.109+116.612+80.5701C117.444+79.9806+118.783+80.6954+119.488+81.4522C127.904+90.4872+111.069+88.3169+114.078+86.0096C115.145+85.1914+117.64+85.348+117.365+85.348" fill="none" stroke-linecap="round" opacity="1" stroke-linejoin="round"/>
<path stroke="#ffffff" stroke-width="1" d="M114.799+143.95C115.221+151.279+103.643+147.952+101.124+144.354C100.539+143.519+101.261+142.184+102.022+141.483C111.103+133.116+108.84+149.939+106.549+146.918C105.737+145.846+105.907+143.353+105.906+143.627" fill="none" stroke-linecap="round" opacity="1" stroke-linejoin="round"/>
<path stroke="#ffffff" stroke-width="1" d="M115.167+333.61C115.616+341.23+103.294+337.77+100.613+334.03C99.9902+333.162+100.759+331.774+101.568+331.046C111.234+322.348+108.825+339.837+106.387+336.695C105.523+335.581+105.704+332.989+105.702+333.275" fill="none" stroke-linecap="round" opacity="1" stroke-linejoin="round"/>
<path stroke="#ffffff" stroke-width="1" d="M114.284+454.315C114.733+461.934+102.411+458.474+99.7296+454.735C99.107+453.866+99.8757+452.478+100.685+451.75C110.35+443.052+107.942+460.541+105.504+457.4C104.639+456.286+104.821+453.694+104.819+453.979" fill="none" stroke-linecap="round" opacity="1" stroke-linejoin="round"/>
<path stroke="#ffffff" stroke-width="1" d="M219.629+483.459C227.254+483.116+223.622+495.389+219.845+498.018C218.968+498.628+217.592+497.84+216.874+497.02C208.312+487.235+225.766+489.887+222.591+492.281C221.465+493.13+218.876+492.913+219.161+492.918" fill="none" stroke-linecap="round" opacity="1" stroke-linejoin="round"/>
<path stroke="#ffffff" stroke-width="1" d="M115.095+94.9618C108.835+101.873+93.5687+101.319+94.0029+87.9264C94.3468+77.3172+112.076+78.9187+111.525+90.558C111.38+93.5991+107.612+95.1596+105.995+94.6282C98.3859+92.1267+105.691+88.9616+104.62+88.1978" fill="none" stroke-linecap="round" opacity="1" stroke-linejoin="round"/>
<path stroke="#ffffff" stroke-width="1" d="M115.482+282.683C108.82+289.867+92.5716+289.292+93.0337+275.369C93.3998+264.34+112.269+266.005+111.682+278.105C111.529+281.266+107.518+282.888+105.797+282.336C97.6986+279.735+105.473+276.445+104.334+275.651" fill="none" stroke-linecap="round" opacity="1" stroke-linejoin="round"/>
<path stroke="#ffffff" stroke-width="1" d="M114.599+403.387C107.937+410.571+91.6885+409.996+92.1506+396.073C92.5166+385.044+111.386+386.709+110.799+398.809C110.646+401.97+106.635+403.593+104.914+403.04C96.8154+400.44+104.59+397.149+103.451+396.355" fill="none" stroke-linecap="round" opacity="1" stroke-linejoin="round"/>
<path stroke="#ffffff" stroke-width="1" d="M110.121+148.576C117.593+154.874+116.901+170.137+102.351+169.629C90.8248+169.227+92.6712+151.506+105.315+152.122C108.618+152.283+110.292+156.06+109.704+157.674C106.941+165.269+103.545+157.947+102.709+159.013" fill="none" stroke-linecap="round" opacity="1" stroke-linejoin="round"/>
<path stroke="#ffffff" stroke-width="1" d="M110.189+338.419C118.141+344.966+117.404+360.834+101.918+360.305C89.6514+359.887+91.6164+341.466+105.073+342.106C108.589+342.273+110.37+346.199+109.745+347.877C106.804+355.773+103.19+348.161+102.3+349.269" fill="none" stroke-linecap="round" opacity="1" stroke-linejoin="round"/>
<path stroke="#ffffff" stroke-width="1" d="M109.306+459.123C117.258+465.671+116.521+481.538+101.035+481.01C88.7682+480.591+90.7332+462.17+104.19+462.81C107.706+462.977+109.487+466.904+108.862+468.581C105.92+476.477+102.307+468.866+101.417+469.974" fill="none" stroke-linecap="round" opacity="1" stroke-linejoin="round"/>
<path stroke="#ffffff" stroke-width="1" d="M224.367+488.504C231.025+480.644+246.881+481.603+246.136+497.079C245.547+509.339+227.154+507.117+227.982+493.671C228.199+490.157+232.15+488.432+233.818+489.08C241.673+492.131+234.011+495.638+235.107+496.544" fill="none" stroke-linecap="round" opacity="1" stroke-linejoin="round"/>
<path stroke="#ffffff" stroke-width="1" d="M759.633+116.654C751.918+124.536+752.633+143.64+767.657+143.004C779.557+142.501+777.651+120.322+764.596+121.092C761.185+121.294+759.457+126.021+760.063+128.041C762.917+137.548+766.423+128.383+767.286+129.717" fill="none" stroke-linecap="round" opacity="1" stroke-linejoin="round"/>
<path stroke="#ffffff" stroke-width="1" d="M761.202+469.005C773.568+468.122+786.091+482.575+772.151+494.957C761.108+504.765+747.536+487.065+759.8+476.464C763.005+473.694+767.815+475.642+768.663+477.624C772.65+486.952+763.183+483.308+763.327+485.013" fill="none" stroke-linecap="round" opacity="1" stroke-linejoin="round"/>
</g>
</svg>
